<svg version="1.0" xmlns="http://www.w3.org/2000/svg" viewBox="0 0 480 480">
  <style>
    g { fill: #000000; }
    @media (prefers-color-scheme: dark) {
      g { fill: #ffffff; }
    }
  </style>
  <g transform="translate(0,480) scale(1,-1)" stroke="none">
    <path d="M1 353 l1 -128 15 70 c18 85 31 113 61 133 20 13 28 13 78 -7 31 -11
68 -21 84 -21 16 0 53 10 84 21 50 20 58 20 78 7 30 -20 43 -48 61 -133 l15
-70 1 128 1 127 -240 0 -240 0 1 -127z"/>
    <path d="M150 304 c0 -9 -9 -18 -20 -21 -24 -6 -27 -23 -4 -23 9 0 18 -9 21
-20 3 -11 10 -20 15 -20 5 0 12 9 15 20 3 11 12 20 19 20 8 0 14 5 14 10 0 6
-6 10 -14 10 -7 0 -16 9 -19 20 -6 24 -27 27 -27 4z"/>
    <path d="M330 310 c0 -5 5 -10 10 -10 6 0 10 5 10 10 0 6 -4 10 -10 10 -5 0
-10 -4 -10 -10z"/>
    <path d="M290 270 c0 -5 5 -10 10 -10 6 0 10 5 10 10 0 6 -4 10 -10 10 -5 0
-10 -4 -10 -10z"/>
    <path d="M370 270 c0 -5 5 -10 10 -10 6 0 10 5 10 10 0 6 -4 10 -10 10 -5 0
-10 -4 -10 -10z"/>
    <path d="M330 230 c0 -5 5 -10 10 -10 6 0 10 5 10 10 0 6 -4 10 -10 10 -5 0
-10 -4 -10 -10z"/>
    <path d="M186 140 c-16 -5 -48 -27 -70 -48 -48 -46 -70 -56 -97 -42 -17 10
-19 7 -19 -20 l0 -30 240 0 240 0 0 30 c0 27 -2 30 -19 20 -27 -14 -58 0 -101
44 -47 50 -107 66 -174 46z"/>
  </g>
</svg>
